<svg version="1.2" xmlns="http://www.w3.org/2000/svg" viewBox="0 0 720 720" width="720" height="720">
	<title>New Project</title>
	<style>
		.s0 { fill: #050302 } 
	</style>
	<path id="&lt;Compound Path&gt;" fill-rule="evenodd" class="s0" d="m304.5 294.1c5.2 5.5 4.6 12.3 4.6 19 0.1 30.6 0.1 61.1 0.3 91.7 0 12.8 2 25.7 18.4 24.8 15.5-0.9 17.4-13.1 17.4-26.2-0.3-64.1-0.2-128.2-0.2-192.3 0-7.4-1.2-15.2 3.6-21.7 4.9-6.5 11.6-9.5 19.6-6.7 11.4 3.9 12.3 13.6 12.3 23.7 0.1 61.9 0.2 123.7 0.2 185.6 0 39.5 0 79-0.1 118.5 0 12.4-0.6 25.6-17.5 25.6-16.3 0-18.1-12.3-18-25.2 0-8.9 0.4-17.9-0.3-26.8-0.9-9.9-5.9-17-16.9-17.1-11.8-0.1-18.1 6.4-18.3 17.9-0.3 27.6-0.2 55.2-0.4 82.8 0 7.4 0.2 14.9-0.3 22.3-0.6 10.2-5.5 17.3-16.3 17.7-11.8 0.5-18.2-6.5-18.6-17.8-0.5-21.6-0.2-43.2-0.2-64.8q-0.1-106.2-0.1-212.4c0-10 0.4-19.8 12.4-23.4 7-2.1 13.2-0.4 18.4 4.8zm153.2 105.5c-5.8 4.8-5.1 12.1-7.6 18.3-3.1 7.6-8.5 12.2-17.1 11.7-9.4-0.7-16-6.4-16.1-15.5-0.4-48.4-0.5-96.9 0.1-145.3 0.1-10.4 7.5-16.4 18-15.7 10.3 0.6 16.3 7.2 16.5 17.5 0.3 20.9 0 41.8 0 62.6 0 12.9 2.1 25.1 18.5 25 16.8-0.2 17.4-13.1 17.5-25.6 0-7.4 0.2-14.9 0.1-22.3-0.3-12.2 4.4-21 17.2-21.6 13.5-0.6 17.9 8.9 18 20.7 0.2 23.8 0.1 47.7 0.1 71.5 0.1 42.5 0.2 85 0.3 127.5 0.1 13.4-1.1 27.6-18.1 27.8-17.5 0.3-17.9-14.1-17.7-27.5 0.2-30.6 0.1-61.1 0.1-91.7 0-8.7-2.4-16.4-11-20.3-6.7-2.9-13.1-1.8-18.8 2.9zm-20.1 278.6c-7.2 5-17.1 4.4-23.3-8.6-2.4-5-2.1-11.6-2.1-17.5-0.1-52.8 0.1-105.6 0-158.4 0-12.8 1.3-25.5 17.7-25.4 16.3 0.1 17.7 12.7 17.7 25.5 0 53.5 0.1 107.1 0.1 160.7 0 7.4 0.3 15-10.1 23.7zm-133.9-633.2c4.6 4.5 5.4 10.3 5.4 16.4 0.1 55.9 0.2 111.8 0.2 167.7 0 12.3-3.4 22.9-18.4 22.5-13.5-0.4-17.2-9.8-17.1-21.5 0-55.9 0.1-111.7 0-167.6 0-9.7 2.4-17.9 11.8-22.1 6.9-3 13.1-1 18.1 4.6zm-76.9 176.9c4.6 4.6 5.3 10.4 5.3 16.5 0.1 55.9 0.2 111.8 0.2 167.6 0 12.4-3.4 22.9-18.4 22.5-13.5-0.3-17.1-9.7-17.1-21.4 0-55.9 0.1-111.8 0-167.6 0-9.7 2.5-17.9 11.9-22.1 6.8-3.1 13-1 18.1 4.5zm277.9 31.1c-10.3 0-18.6-8.2-18.6-18.5 0-10.2 8.3-18.5 18.6-18.5 10.2 0 18.5 8.3 18.5 18.5 0 10.3-8.3 18.5-18.5 18.5zm-290.2 241.3c-10.2 0-18.5-8.3-18.5-18.6 0-10.2 8.3-18.5 18.5-18.5 10.3 0 18.6 8.3 18.6 18.5 0 10.3-8.3 18.6-18.6 18.6z"/>
</svg>